<?xml version="1.0" encoding="UTF-8"?>
<svg id="Layer_2" data-name="Layer 2" xmlns="http://www.w3.org/2000/svg" viewBox="0 0 665.9 187.23">
  <defs>
    <style>
      .cls-1 {
        fill: #ff6b6b;
      }

      .cls-2 {
        fill: #066;
      }

      .cls-3 {
        fill: none;
        stroke: #066;
        stroke-miterlimit: 10;
        stroke-width: 2px;
      }
    </style>
  </defs>
  <g id="Layer_1-2" data-name="Layer 1">
    <g>
      <g>
        <rect class="cls-2" x="3.61" y="57.36" width="29.33" height="127.85"/>
        <g>
          <path class="cls-2" d="M18.27,1.49c9.26,0,16.79,7.53,16.79,16.79s-7.53,16.79-16.79,16.79S1.49,27.53,1.49,18.27,9.02,1.49,18.27,1.49M18.27,0C8.18,0,0,8.18,0,18.27s8.18,18.27,18.27,18.27,18.27-8.18,18.27-18.27S28.37,0,18.27,0h0Z"/>
          <path class="cls-1" d="M16.87,32.26c-7.1-.71-12.65-6.7-12.65-13.99s5.55-13.28,12.65-13.99h0v27.97h0Z"/>
          <path class="cls-3" d="M16.87,32.26c-7.1-.71-12.65-6.7-12.65-13.99s5.55-13.28,12.65-13.99h0v27.97h0ZM8.07,8.61c2.25,1.09,5.34,1.81,8.8,1.97M16.84,25.97c-3.45.16-6.53.88-8.78,1.97M16.87,18.27H4.22M16.87,4.29c-3.55.71-6.33,6.7-6.33,13.99s2.77,13.28,6.33,13.99"/>
          <path class="cls-2" d="M30.83,14.43c-.79.22-1.34.65-1.66.98-.1.1-.23.15-.36.15s-.25-.05-.35-.14c-.2-.19-.2-.5-.01-.7.4-.42,1.1-.97,2.1-1.25.5-.14.97-.17,1.39-.16-1.85-5.14-6.5-8.95-12.23-9.52l-.54-.05c0,1.19,0,2.38,0,3.58,1.71-.83,2.89-.96,3.6-.37.42.35.5.83.59,1.28.03.16.06.34.11.54.27,1.05.97,2.05,2.08,2.96.21.17.24.49.07.7-.1.12-.24.18-.38.18-.11,0-.22-.04-.31-.11-1.28-1.05-2.09-2.22-2.42-3.48-.06-.22-.09-.42-.13-.61-.07-.39-.11-.58-.25-.7-.18-.15-.8-.39-2.74.6-.07.04-.15.05-.22.05,0,4.34,0,8.67,0,13.01v.07c.29-.09.61-.18.94-.23.71-1.78,2.75-2.85,4.35-2.74,1.88.13,2.91,1.77,3.02,1.96.14.24.06.54-.17.68-.24.14-.54.06-.68-.17-.08-.14-.86-1.38-2.24-1.48-1.09-.08-2.49.59-3.16,1.71.19.02.39.05.58.1.28.07.85.23,1.36.73.14.14.61.64.75,1.32.19.93-.25,1.62-.64,2.24-.29.46-.57.89-.59,1.41-.02.65.37,1.36,1.18,2.12.2.19.21.5.03.7-.1.11-.23.16-.36.16-.12,0-.24-.04-.34-.13-1.03-.96-1.53-1.93-1.5-2.88.03-.79.41-1.38.74-1.91.38-.6.61-.99.51-1.5-.09-.43-.43-.77-.47-.81-.33-.32-.69-.42-.93-.48-.33-.09-.68-.11-1.01-.08-.01,0-.03,0-.04,0-.49.05-.96.19-1.33.33,0,3.44,0,6.88,0,10.32l.54-.05c2.4-.24,4.61-1.05,6.5-2.28.19-.38.33-.87.27-1.43-.1-.99-.75-1.84-1.68-2.23-.25-.11-.37-.4-.27-.65.1-.25.39-.37.65-.27,1.27.53,2.15,1.69,2.29,3.04.02.21.02.42,0,.61,3.27-2.67,5.33-6.74,5.33-11.28,0-1.36-.19-2.68-.54-3.93-.41-.06-.91-.06-1.46.09ZM30.55,21.68c-.07.92-.9,2.07-2.15,2.4-.19.05-.43.09-.71.09-.88,0-2.12-.42-3.35-2.23-.15-.23-.09-.54.13-.69.23-.15.54-.09.69.13.93,1.38,1.99,2,2.98,1.74.79-.21,1.37-.95,1.42-1.52.05-.67-.29-1.27-.58-1.66-.17-.22-.13-.53.09-.7.22-.17.53-.13.7.09.4.52.87,1.35.79,2.34ZM30.4,16.81c-.77.7-1.71,1.07-2.56,1.07-.64,0-1.23-.2-1.67-.61-.31-.29-.54-.69-.65-1.13-1.02.37-2.62.04-3.56-.53-1.19-.72-1.81-2.17-1.53-3.59.05-.27.31-.44.58-.39.27.05.44.31.39.58-.2,1.02.24,2.04,1.07,2.55.81.49,2.19.69,2.79.41.13-.06.19-.13.22-.2.01-.05.02-.1.04-.14,0,0,0-.01,0-.02.22-.76.65-1.08,1.29-1.58.25-.19.54-.42.89-.71,1.03-.89,1.25-1.25,1-1.69-.29-.5-2.06-1.04-2.48-1.1-.26-.04-.46-.28-.43-.54.03-.26.25-.47.51-.45.02,0,2.64.49,3.27,1.6.72,1.27-.4,2.23-1.21,2.94-.37.32-.68.56-.93.75-.61.46-.81.64-.94,1.05,0,.05-.02.11-.04.16-.08.47.08,1.01.4,1.31.57.53,1.86.47,2.88-.46.2-.19.52-.17.7.03.18.2.17.52-.03.7Z"/>
        </g>
      </g>
      <path class="cls-2" d="M205.07,185.21c-2.7,0-4.91-.67-6.57-1.99-1.72-1.36-3.02-3.08-3.87-5.1l-13.91-37.99h-77.29l-13.92,38.03c-.62,1.77-1.83,3.4-3.61,4.88-1.77,1.46-3.91,2.17-6.56,2.17h-25.07L125.49,4.18h33.28l71.11,181.03h-24.82ZM141.01,34.29c-1.09,4.28-2.24,8.33-3.4,12.04-1.16,3.7-2.3,6.98-3.39,9.75l-22.68,62.07h61.21l-22.8-62.3c-1.1-2.72-2.24-5.93-3.4-9.58-1.16-3.64-2.35-7.67-3.53-11.99l-1.03-3.77-.97,3.79Z"/>
      <rect class="cls-2" x="253.33" y="4.18" width="32.12" height="181.03"/>
      <path class="cls-2" d="M492.07,185.21v-117.23c0-4.67.25-9.8.76-15.23l.47-5.12-57.75,108.5c-2.45,4.66-6.08,6.92-11.12,6.92h-4.81c-5.03,0-8.67-2.26-11.11-6.92l-58.38-108.83.46,5.06c.25,2.72.46,5.48.63,8.2.17,2.65.25,5.15.25,7.41v117.23h-27.94V4.18h24.67c1.48,0,2.77.04,3.85.12.98.07,1.89.27,2.69.57.73.28,1.41.75,2.02,1.39.65.69,1.3,1.64,1.93,2.82l54.83,101.68c1.41,2.66,2.74,5.44,3.95,8.27,1.22,2.87,2.43,5.84,3.6,8.83l.98,2.51.95-2.52c1.17-3.09,2.4-6.12,3.65-9.01,1.27-2.91,2.62-5.72,4.02-8.35l54.07-101.43c.62-1.17,1.28-2.11,1.97-2.79.65-.65,1.36-1.13,2.11-1.41.79-.3,1.7-.49,2.68-.56,1.08-.08,2.37-.12,3.85-.12h24.67v181.03h-27.94Z"/>
      <path class="cls-2" d="M603.37,187.23c-5.74,0-11.46-.57-17.01-1.69-5.56-1.12-10.97-2.74-16.09-4.82-5.11-2.07-9.97-4.6-14.45-7.51-4.23-2.75-8.07-5.82-11.41-9.16l9.56-15.61c.75-1.05,1.75-1.94,2.96-2.66,1.18-.7,2.45-1.06,3.78-1.06,1.88,0,3.97.81,6.24,2.41,2.45,1.73,5.41,3.68,8.79,5.79,3.43,2.14,7.47,4.11,12.02,5.85,4.61,1.77,10.21,2.66,16.64,2.66,9.92,0,17.73-2.41,23.22-7.15,5.53-4.78,8.33-11.71,8.33-20.6,0-5.03-1.29-9.21-3.83-12.42-2.48-3.14-5.81-5.81-9.9-7.94-4.01-2.09-8.63-3.88-13.74-5.33-5.03-1.42-10.21-3-15.42-4.67-5.15-1.66-10.31-3.69-15.33-6.03-4.94-2.31-9.4-5.35-13.27-9.06-3.85-3.68-6.99-8.36-9.32-13.9-2.34-5.54-3.53-12.5-3.53-20.68,0-6.5,1.31-12.93,3.91-19.1,2.59-6.17,6.41-11.72,11.35-16.5,4.94-4.78,11.14-8.67,18.4-11.56,7.27-2.89,15.75-4.36,25.2-4.36,10.63,0,20.56,1.68,29.52,5,8.67,3.21,16.2,7.73,22.37,13.43l-8.11,15.38c-.92,1.6-1.9,2.79-2.91,3.5-.95.67-2.18,1.01-3.65,1.01-1.57,0-3.32-.61-5.21-1.8-2.06-1.3-4.57-2.78-7.45-4.4-2.91-1.62-6.35-3.12-10.24-4.44-3.94-1.34-8.63-2.02-13.95-2.02-4.81,0-9.09.59-12.73,1.76-3.66,1.18-6.78,2.84-9.28,4.94-2.53,2.13-4.43,4.71-5.67,7.68-1.23,2.93-1.85,6.2-1.85,9.7,0,4.54,1.29,8.38,3.85,11.43,2.49,2.96,5.81,5.52,9.88,7.6,3.99,2.04,8.6,3.9,13.7,5.51,5.03,1.59,10.26,3.32,15.55,5.12,5.27,1.8,10.47,3.91,15.46,6.29,4.94,2.35,9.42,5.35,13.29,8.94,3.85,3.56,6.98,7.99,9.32,13.15,2.33,5.16,3.52,11.53,3.52,18.95,0,8.1-1.4,15.79-4.17,22.86-2.76,7.05-6.86,13.27-12.17,18.51-5.32,5.24-11.91,9.42-19.59,12.44-7.69,3.02-16.64,4.55-26.59,4.55Z"/>
    </g>
  </g>
</svg>